<?xml version="1.0" encoding="UTF-8"?>
<svg id="Layer_2" data-name="Layer 2" xmlns="http://www.w3.org/2000/svg" viewBox="0 0 834 834">
  <defs>
    <style>
      .cls-1 {
        fill: #fff;
      }
    </style>
  </defs>
  <g id="Layer_8" data-name="Layer 8">
    <g>
      <path class="cls-1" d="M642,834c-105.87,0-192-86.13-192-192v-103.55c0-13.52-8.1-25.53-20.62-30.59-3.91-1.6-8.08-2.41-12.38-2.41s-8.46.82-12.4,2.42c-12.5,5.05-20.6,17.06-20.6,30.58v103.55c0,51.29-19.97,99.51-56.24,135.76-36.26,36.27-84.47,56.24-135.76,56.24H0v-192c0-105.87,86.13-192,192-192h103.55c13.52,0,25.53-8.1,30.59-20.62,1.6-3.91,2.41-8.08,2.41-12.38s-.82-8.47-2.42-12.4c-5.05-12.5-17.06-20.6-30.58-20.6h-103.55C86.13,384,0,297.87,0,192V0h192c105.87,0,192,86.13,192,192,0,39.65,8.68,77.59,25.81,112.77,12.51,25.72,29.25,49.16,49.76,69.67,20.5,20.5,43.93,37.24,69.67,49.77,35.19,17.12,73.13,25.8,112.77,25.8,51.29,0,99.51,19.97,135.76,56.24,36.27,36.26,56.24,84.47,56.24,135.76v192h-192Z"/>
      <path class="cls-1" d="M642,384c-105.87,0-192-86.13-192-192,0-51.29,19.97-99.51,56.24-135.76C542.49,19.97,590.71,0,642,0h192v192c0,105.87-86.13,192-192,192Z"/>
    </g>
  </g>
</svg>