<?xml version="1.0" encoding="UTF-8"?>
<svg id="Layer_2" data-name="Layer 2" xmlns="http://www.w3.org/2000/svg" viewBox="0 0 475 475">
  <defs>
    <style>
      .cls-1 {
        fill: #fff;
      }
    </style>
  </defs>
  <g id="Layer_4" data-name="Layer 4">
    <path class="cls-1" d="M405.91,0H69.09C30.93,0,0,30.93,0,69.09v336.82c0,38.16,30.93,69.09,69.09,69.09h336.82c38.16,0,69.09-30.93,69.09-69.09V69.09c0-38.16-30.93-69.09-69.09-69.09ZM228.61,175.27v124.47h0c0,49.1-39.8,88.9-88.9,88.9h0v-213.37h0c0-49.1,39.8-88.9,88.9-88.9h0v88.9ZM335.29,237.5c0,24.55-19.9,44.45-44.45,44.45h0c-24.55,0-44.45-19.9-44.45-44.45h0c0-24.55,19.9-44.45,44.45-44.45h0c24.55,0,44.45,19.9,44.45,44.45h0ZM335.29,130.82c0,24.55-19.9,44.45-44.45,44.45h0c-24.55,0-44.45-19.9-44.45-44.45h0c0-24.55,19.9-44.45,44.45-44.45h0c24.55,0,44.45,19.9,44.45,44.45h0Z"/>
  </g>
</svg>