<?xml version="1.0" encoding="UTF-8"?>
<svg id="Layer_2" data-name="Layer 2" xmlns="http://www.w3.org/2000/svg" xmlns:xlink="http://www.w3.org/1999/xlink" viewBox="0 0 2040.08 475">
  <defs>
    <style>
      .cls-1 {
        fill: none;
      }

      .cls-2 {
        fill: #43a047;
      }

      .cls-3 {
        fill: #ffca3a;
      }

      .cls-4 {
        fill: #121727;
      }

      .cls-5 {
        clip-path: url(#clippath-1);
      }

      .cls-6 {
        fill: #111827;
      }

      .cls-7 {
        clip-path: url(#clippath);
      }
    </style>
    <clipPath id="clippath">
      <rect class="cls-1" y="0" width="475" height="475"/>
    </clipPath>
    <clipPath id="clippath-1">
      <rect class="cls-1" y="0" width="475" height="475"/>
    </clipPath>
  </defs>
  <g id="Layer_5_copy" data-name="Layer 5 copy">
    <g>
      <path class="cls-4" d="M639.39,385.09V98.7h189.62v49.92h-129.07v68.24h116.49v49.92h-116.49v118.31h-60.55Z"/>
      <path class="cls-4" d="M912.4,98.7v286.39h-59.57V98.7h59.57Z"/>
      <path class="cls-4" d="M1041.24,389.29c-21.72,0-40.48-4.64-56.29-13.91-15.8-9.28-27.99-22.24-36.57-38.88-8.58-16.64-12.87-35.96-12.87-57.96s4.29-41.6,12.87-58.24c8.58-16.64,20.77-29.6,36.57-38.88,15.8-9.28,34.56-13.91,56.29-13.91s40.48,4.64,56.29,13.91c15.8,9.28,27.99,22.23,36.57,38.88,8.58,16.64,12.87,36.06,12.87,58.24s-4.29,41.32-12.87,57.96c-8.58,16.64-20.77,29.6-36.57,38.88-15.8,9.28-34.56,13.91-56.29,13.91ZM1041.52,343.14c9.88,0,18.13-2.82,24.75-8.46,6.62-5.64,11.63-13.35,15.03-23.14,3.4-9.79,5.1-20.93,5.1-33.42s-1.7-23.63-5.1-33.42c-3.4-9.79-8.41-17.53-15.03-23.21-6.62-5.69-14.87-8.53-24.75-8.53s-18.34,2.84-25.1,8.53c-6.76,5.69-11.84,13.42-15.24,23.21-3.4,9.79-5.1,20.93-5.1,33.42s1.7,23.63,5.1,33.42c3.4,9.79,8.48,17.5,15.24,23.14,6.76,5.64,15.12,8.46,25.1,8.46Z"/>
      <path class="cls-4" d="M1307.83,293.64v-123.34h59.57v214.8h-57.19v-39.02h-2.24c-4.85,12.59-12.89,22.7-24.12,30.35-11.24,7.65-24.92,11.47-41.04,11.47-14.36,0-26.99-3.26-37.9-9.79-10.91-6.52-19.42-15.8-25.52-27.83-6.11-12.03-9.21-26.43-9.3-43.21v-136.76h59.57v126.14c.09,12.68,3.5,22.7,10.21,30.07,6.71,7.37,15.71,11.05,26.99,11.05,7.18,0,13.89-1.65,20.14-4.96,6.25-3.31,11.3-8.23,15.17-14.75,3.87-6.52,5.76-14.59,5.66-24.19Z"/>
      <path class="cls-4" d="M1399.19,385.09v-214.8h57.75v37.48h2.24c3.92-13.33,10.49-23.42,19.72-30.28s19.86-10.28,31.88-10.28c2.98,0,6.2.19,9.65.56,3.45.37,6.48.89,9.09,1.54v52.86c-2.8-.84-6.67-1.58-11.61-2.24-4.94-.65-9.46-.98-13.56-.98-8.76,0-16.57,1.89-23.42,5.66-6.85,3.78-12.26,9.02-16.22,15.73-3.96,6.71-5.94,14.45-5.94,23.21v121.52h-59.57Z"/>
      <path class="cls-4" d="M1574.32,142.61c-8.86,0-16.43-2.94-22.72-8.81-6.29-5.87-9.44-12.96-9.44-21.26s3.17-15.4,9.51-21.33c6.34-5.92,13.89-8.88,22.65-8.88s16.43,2.94,22.72,8.81c6.29,5.87,9.44,12.96,9.44,21.26s-3.15,15.41-9.44,21.33c-6.29,5.92-13.87,8.88-22.72,8.88ZM1544.39,385.09v-214.8h59.57v214.8h-59.57Z"/>
      <path class="cls-4" d="M1814.47,231.55l-54.54,3.36c-.93-4.66-2.94-8.88-6.01-12.66-3.08-3.78-7.11-6.8-12.1-9.09-4.99-2.28-10.93-3.43-17.83-3.43-9.23,0-17.01,1.94-23.35,5.8-6.34,3.87-9.51,9.02-9.51,15.45,0,5.13,2.05,9.46,6.15,13,4.1,3.54,11.14,6.39,21.12,8.53l38.88,7.83c20.88,4.29,36.45,11.19,46.71,20.7,10.25,9.51,15.38,22,15.38,37.48,0,14.08-4.12,26.43-12.38,37.06-8.25,10.63-19.53,18.9-33.84,24.82-14.31,5.92-30.79,8.88-49.43,8.88-28.44,0-51.07-5.94-67.89-17.83-16.83-11.89-26.69-28.08-29.58-48.59l58.59-3.08c1.77,8.67,6.06,15.27,12.87,19.79,6.8,4.52,15.52,6.78,26.15,6.78s18.85-2.03,25.24-6.08c6.38-4.05,9.62-9.3,9.72-15.73-.09-5.41-2.38-9.86-6.85-13.36-4.47-3.5-11.38-6.17-20.7-8.04l-37.2-7.41c-20.98-4.2-36.57-11.47-46.78-21.82-10.21-10.35-15.31-23.54-15.31-39.57,0-13.8,3.75-25.68,11.26-35.66,7.5-9.97,18.08-17.67,31.74-23.07,13.66-5.41,29.67-8.11,48.04-8.11,27.13,0,48.5,5.73,64.12,17.2,15.61,11.47,24.73,27.08,27.34,46.85Z"/>
      <path class="cls-4" d="M1900.8,260.92v124.18h-59.57V98.7h57.89v109.5h2.52c4.85-12.68,12.68-22.63,23.49-29.86,10.81-7.22,24.38-10.84,40.69-10.84,14.92,0,27.94,3.24,39.09,9.72,11.14,6.48,19.81,15.76,26.01,27.83,6.2,12.07,9.25,26.5,9.16,43.28v136.76h-59.57v-126.14c.09-13.24-3.24-23.54-10-30.9-6.76-7.36-16.2-11.05-28.32-11.05-8.11,0-15.27,1.73-21.47,5.17-6.2,3.45-11.05,8.46-14.54,15.03-3.5,6.57-5.29,14.47-5.38,23.7Z"/>
    </g>
  </g>
  <g id="Layer_3" data-name="Layer 3">
    <g id="Artwork_1" data-name="Artwork 1">
      <g class="cls-7">
        <g class="cls-5">
          <path class="cls-6" d="M405.91,475H69.09c-38.16,0-69.09-30.93-69.09-69.09V69.09C0,30.93,30.93,0,69.09,0h336.82C444.07,0,475,30.93,475,69.09v336.82c0,38.16-30.93,69.09-69.09,69.09"/>
          <path class="cls-2" d="M228.61,86.36c-49.1,0-88.9,39.8-88.9,88.9v213.37c49.1,0,88.9-39.8,88.9-88.9V86.36Z"/>
          <path class="cls-3" d="M290.84,175.27h0c-24.55,0-44.45-19.9-44.45-44.45s19.9-44.45,44.45-44.45,44.45,19.9,44.45,44.45-19.9,44.45-44.45,44.45"/>
          <path class="cls-3" d="M290.84,281.95h0c-24.55,0-44.45-19.9-44.45-44.45s19.9-44.45,44.45-44.45,44.45,19.9,44.45,44.45-19.9,44.45-44.45,44.45"/>
        </g>
      </g>
    </g>
  </g>
</svg>