<?xml version="1.0" encoding="UTF-8"?>
<svg id="Layer_2" data-name="Layer 2" xmlns="http://www.w3.org/2000/svg" viewBox="0 0 450.42 94.32">
  <defs>
    <style>
      .cls-1 {
        fill: #fff;
      }
    </style>
  </defs>
  <g id="Layer_5_copy" data-name="Layer 5 copy">
    <g>
      <path class="cls-1" d="M0,92.73V.05h60.37v14.43H17.87v24.76h34.03v14.03H17.87v39.46H0Z"/>
      <path class="cls-1" d="M66.6,92.73V.05h17.87v92.68h-17.87Z"/>
      <path class="cls-1" d="M126.84,94.32c-6.35,0-12.07-1.48-17.15-4.44-5.08-2.96-9.09-7.06-12.05-12.31-2.96-5.25-4.44-11.27-4.44-18.07s1.48-13.08,4.44-18.34c2.96-5.25,6.99-9.36,12.11-12.31,5.12-2.96,10.86-4.44,17.21-4.44s12.2,1.48,17.28,4.44c5.07,2.96,9.09,7.06,12.05,12.31,2.96,5.25,4.44,11.32,4.44,18.2s-1.48,12.96-4.44,18.21c-2.96,5.25-7,9.36-12.11,12.31-5.12,2.96-10.9,4.44-17.34,4.44ZM126.84,78.83c3,0,5.67-.71,8.01-2.12,2.34-1.41,4.19-3.58,5.56-6.49,1.37-2.91,2.05-6.53,2.05-10.86s-.68-7.92-2.05-10.79c-1.37-2.87-3.22-5.03-5.56-6.49-2.34-1.46-4.96-2.18-7.88-2.18s-5.43.73-7.81,2.18c-2.38,1.46-4.26,3.62-5.63,6.49-1.37,2.87-2.05,6.47-2.05,10.79s.68,7.94,2.05,10.86c1.37,2.91,3.22,5.08,5.56,6.49,2.34,1.41,4.92,2.12,7.75,2.12Z"/>
      <path class="cls-1" d="M194.36,94.32c-5.39,0-10-1.13-13.84-3.38-3.84-2.25-6.78-5.56-8.8-9.93-2.03-4.37-3.04-9.77-3.04-16.22V26h17.87v36.94c0,5.38,1.12,9.45,3.38,12.18,2.25,2.74,5.71,4.1,10.39,4.1,3,0,5.65-.68,7.94-2.05,2.29-1.37,4.12-3.35,5.5-5.96,1.37-2.6,2.05-5.8,2.05-9.6V26h17.74v66.73h-17.74s0-9.07,0-9.65c-1.91,3.24-4.56,5.86-7.94,7.87-3.8,2.25-8.3,3.38-13.5,3.38Z"/>
      <path class="cls-1" d="M244.41,92.73V26h17.87s0,11.43,0,11.84c1.55-2.71,3.46-5.02,5.76-6.94,2.43-2.03,5.21-3.62,8.34-4.77,3.13-1.15,6.6-1.72,10.39-1.72v18.93h-6.09c-2.65,0-5.1.31-7.35.93-2.25.62-4.22,1.61-5.89,2.98-1.68,1.37-2.96,3.24-3.84,5.63-.88,2.38-1.32,5.38-1.32,9v30.85h-17.87Z"/>
      <path class="cls-1" d="M292.34,92.73V26h17.87v66.73h-17.87Z"/>
      <path class="cls-1" d="M348.87,94.32c-6.09,0-11.39-.97-15.89-2.91-4.5-1.94-8.03-4.63-10.59-8.08-2.56-3.44-4.02-7.33-4.37-11.65h17.74c.44,1.68,1.19,3.2,2.25,4.57,1.06,1.37,2.47,2.45,4.24,3.24,1.76.79,3.88,1.19,6.36,1.19s4.32-.33,5.83-.99c1.5-.66,2.62-1.57,3.38-2.71.75-1.15,1.13-2.34,1.13-3.57,0-1.85-.53-3.29-1.59-4.3-1.06-1.01-2.6-1.83-4.63-2.45-2.03-.62-4.5-1.24-7.42-1.85-3.18-.62-6.29-1.39-9.33-2.32s-5.76-2.1-8.14-3.51c-2.38-1.41-4.28-3.22-5.69-5.43-1.41-2.21-2.12-4.94-2.12-8.21,0-3.97,1.06-7.52,3.18-10.66,2.12-3.13,5.21-5.63,9.27-7.48,4.06-1.85,8.96-2.78,14.7-2.78,8.03,0,14.39,1.81,19.07,5.43,4.68,3.62,7.46,8.61,8.34,14.96h-16.81c-.53-2.03-1.7-3.64-3.51-4.83-1.81-1.19-4.22-1.79-7.22-1.79-3.18,0-5.61.58-7.28,1.72-1.68,1.15-2.52,2.65-2.52,4.5,0,1.24.55,2.34,1.66,3.31,1.1.97,2.67,1.79,4.7,2.45,2.03.66,4.5,1.3,7.41,1.92,5.12,1.06,9.62,2.27,13.5,3.64,3.88,1.37,6.93,3.31,9.14,5.83,2.21,2.52,3.31,6.16,3.31,10.92,0,4.24-1.15,8.01-3.44,11.32-2.3,3.31-5.54,5.89-9.73,7.75-4.19,1.85-9.16,2.78-14.89,2.78Z"/>
      <path class="cls-1" d="M385.41,92.73V0h17.87v35.93c2.21-3.44,5.14-6.22,8.8-8.34,3.66-2.12,7.92-3.18,12.78-3.18,5.56,0,10.24,1.17,14.03,3.51,3.79,2.34,6.66,5.72,8.61,10.13,1.94,4.42,2.91,9.89,2.91,16.42v38.26h-17.74v-36.67c0-5.3-1.1-9.38-3.31-12.25-2.21-2.87-5.69-4.3-10.46-4.3-2.91,0-5.56.71-7.94,2.12-2.38,1.41-4.26,3.46-5.63,6.16-1.37,2.69-2.05,5.89-2.05,9.6v35.35h-17.87Z"/>
      <rect class="cls-1" x="292.6" y="0" width="17.61" height="17.61" rx="8.8" ry="8.8"/>
    </g>
  </g>
</svg>