<?xml version="1.0" encoding="UTF-8"?>
<svg id="Layer_2" data-name="Layer 2" xmlns="http://www.w3.org/2000/svg" viewBox="0 0 700 700">
  <defs>
    <style>
      .cls-1 {
        fill: #f9b500;
      }

      .cls-2 {
        fill: #2d9653;
      }
    </style>
  </defs>
  <g id="Layer_10" data-name="Layer 10">
    <g>
      <path class="cls-2" d="M538.85,700c-88.86,0-161.15-72.29-161.15-161.15v-86.91c0-11.35-6.79-21.43-17.31-25.67-3.28-1.34-6.79-2.02-10.39-2.02s-7.1.68-10.41,2.03c-10.49,4.24-17.29,14.32-17.29,25.66v86.91c0,43.05-16.76,83.52-47.2,113.95-30.43,30.44-70.9,47.2-113.95,47.2H0v-161.15c0-88.86,72.29-161.15,161.15-161.15h86.91c11.35,0,21.43-6.79,25.67-17.31,1.34-3.28,2.02-6.79,2.02-10.39s-.68-7.11-2.03-10.41c-4.24-10.49-14.32-17.29-25.66-17.29h-86.91C72.29,322.3,0,250.01,0,161.15V0h161.15c88.86,0,161.15,72.29,161.15,161.15,0,33.28,7.29,65.12,21.66,94.65,10.5,21.59,24.55,41.26,41.76,58.47,17.2,17.2,36.88,31.26,58.47,41.77,29.54,14.37,61.38,21.65,94.65,21.65,43.05,0,83.52,16.76,113.95,47.2,30.44,30.43,47.2,70.9,47.2,113.95v161.15h-161.15Z"/>
      <path class="cls-1" d="M538.85,322.3c-88.86,0-161.15-72.29-161.15-161.15,0-43.05,16.76-83.52,47.2-113.95C455.33,16.76,495.8,0,538.85,0h161.15v161.15c0,88.86-72.29,161.15-161.15,161.15Z"/>
    </g>
  </g>
</svg>